<svg xmlns="http://www.w3.org/2000/svg" width="1em" height="1em" viewBox="0 0 24 24"><path fill="currentColor" d="M9.734 2.699a11.3 11.3 0 0 1 4.532 0c.647.132 1.145.65 1.252 1.302l.055.329q.139.84.22 1.688a.25.25 0 0 1-.071.2l-.923.922a.255.255 0 0 1-.433-.166a24 24 0 0 0-.273-2.4l-.054-.33a.09.09 0 0 0-.074-.076a9.8 9.8 0 0 0-3.93 0a.09.09 0 0 0-.074.076l-.054.33a24.2 24.2 0 0 0-.072 7.387a.25.25 0 0 1-.07.214l-.919.918c-.125.125-.336.081-.365-.094l-.054-.328a25.7 25.7 0 0 1 0-8.341L8.481 4a1.59 1.59 0 0 1 1.253-1.3"/><path fill="currentColor" fill-rule="evenodd" d="m15.87 9.99l5.16-5.16a.75.75 0 0 0-1.06-1.06l-16 16a.75.75 0 1 0 1.06 1.06l2.629-2.628h.007q1.787.23 3.584.268v4.03a.75.75 0 0 0 1.5 0v-4.03a34 34 0 0 0 3.584-.267a3.426 3.426 0 0 0 2.958-2.918l.45-3.18a.75.75 0 0 0-1.485-.21l-.45 3.18a1.926 1.926 0 0 1-1.663 1.64a32.7 32.7 0 0 1-7.125.127l2.33-2.33a11.3 11.3 0 0 0 2.917-.21a1.59 1.59 0 0 0 1.252-1.303l.055-.328q.22-1.335.298-2.681m-1.663 1.663l-1.339 1.34a10 10 0 0 0 1.097-.161a.09.09 0 0 0 .074-.076l.054-.33q.063-.385.114-.773" clip-rule="evenodd"/><path fill="currentColor" d="M6.193 15.074q.027.187.087.361a.27.27 0 0 1-.058.282l-.762.763c-.112.111-.299.093-.374-.046a3.4 3.4 0 0 1-.378-1.15l-.45-3.179a.75.75 0 1 1 1.485-.21z"/></svg>