<svg xmlns="http://www.w3.org/2000/svg" width="1em" height="1em" viewBox="0 0 24 24"><path fill="currentColor" fill-rule="evenodd" d="M9.734 2.699a11.3 11.3 0 0 1 4.532 0c.647.132 1.145.65 1.252 1.302l.055.329a25.7 25.7 0 0 1 0 8.34l-.055.33a1.59 1.59 0 0 1-1.252 1.301a11.3 11.3 0 0 1-4.532 0A1.59 1.59 0 0 1 8.48 13l-.054-.328a25.7 25.7 0 0 1 0-8.341L8.481 4a1.59 1.59 0 0 1 1.253-1.3m4.231 1.47a9.8 9.8 0 0 0-3.93 0a.09.09 0 0 0-.074.075l-.054.33a24.2 24.2 0 0 0 0 7.853l.054.329a.09.09 0 0 0 .074.076a9.8 9.8 0 0 0 3.93 0a.09.09 0 0 0 .074-.076l.054-.33c.428-2.6.428-5.252 0-7.853l-.054-.329a.09.09 0 0 0-.074-.076" clip-rule="evenodd"/><path fill="currentColor" d="M4.895 11.257a.75.75 0 0 1 .848.638l.45 3.18c.122.858.803 1.53 1.663 1.64c2.752.351 5.536.351 8.288 0a1.926 1.926 0 0 0 1.663-1.64l.45-3.18a.75.75 0 0 1 1.486.21l-.451 3.18a3.426 3.426 0 0 1-2.958 2.918q-1.787.227-3.584.267v4.03a.75.75 0 0 1-1.5 0v-4.03a34 34 0 0 1-3.584-.267a3.426 3.426 0 0 1-2.958-2.918l-.45-3.18a.75.75 0 0 1 .637-.848"/></svg>