<svg xmlns="http://www.w3.org/2000/svg" width="1em" height="1em" viewBox="0 0 24 24"><path fill="none" stroke="currentColor" stroke-linecap="round" stroke-width="1.5" d="m2 2l20 20M4 11a8 8 0 0 0 8 8m0 0c1.954 0 3.745-.7 5.135-1.865M12 19v3m0 0h3m-3 0H9m11-11c0 1.651-.5 3.186-1.358 4.46m-1.634-8.464c0-2.761-2.239-4.98-5-4.98c-1.869 0-3.47.965-4.328 2.484m9.328 2.496l-3.028.012m3.028-.012v4.008m-10-4.008v4.02a5 5 0 0 0 5 5c1.135 0 2.165-.39 3.004-1.028m1.435-1.728c.358-.69.56-1.413.56-2.244v-.012m-2.824 0h2.825"/></svg>