<svg xmlns="http://www.w3.org/2000/svg" width="1em" height="1em" viewBox="0 0 24 24"><path fill="currentColor" d="M12 9a3 3 0 1 0 0 6a3 3 0 1 0 0-6m0 4.5a1.5 1.5 0 1 1 .001-3.001A1.5 1.5 0 0 1 12 13.5m9.848 1.072l-1.93-1.63a1.232 1.232 0 0 1 0-1.884l1.93-1.63a.62.62 0 0 0 .189-.662a10.5 10.5 0 0 0-2.209-3.804a.62.62 0 0 0-.668-.168l-2.381.848a1.3 1.3 0 0 1-.419.073a1.24 1.24 0 0 1-1.219-1.014l-.454-2.478a.62.62 0 0 0-.482-.493a10.7 10.7 0 0 0-4.408 0a.62.62 0 0 0-.482.493l-.453 2.478a1.24 1.24 0 0 1-1.638.942l-2.38-.848a.62.62 0 0 0-.669.168a10.5 10.5 0 0 0-2.21 3.805a.615.615 0 0 0 .189.661l1.929 1.63q.077.066.143.143c.444.52.379 1.299-.143 1.742l-1.929 1.63a.62.62 0 0 0-.189.662a10.5 10.5 0 0 0 2.21 3.803a.62.62 0 0 0 .669.168l2.38-.847a1.3 1.3 0 0 1 .419-.072c.588 0 1.11.417 1.219 1.014l.453 2.478a.62.62 0 0 0 .482.493a10.7 10.7 0 0 0 4.408 0a.62.62 0 0 0 .482-.493l.454-2.478q.018-.099.053-.194a1.24 1.24 0 0 1 1.585-.748l2.379.848q.105.036.208.036a.62.62 0 0 0 .461-.204a10.5 10.5 0 0 0 2.208-3.804a.615.615 0 0 0-.189-.662zm-2.756 3.017l-1.81-.645a2.747 2.747 0 0 0-3.615 2.085l-.345 1.877a9.2 9.2 0 0 1-2.642-.002l-.344-1.876a2.737 2.737 0 0 0-3.616-2.085l-1.81.644a8.9 8.9 0 0 1-1.319-2.266l1.461-1.235c.56-.472.9-1.135.96-1.864a2.7 2.7 0 0 0-.645-1.995a3 3 0 0 0-.315-.315L3.591 8.677A8.9 8.9 0 0 1 4.91 6.412l1.81.645q.447.158.921.159a2.75 2.75 0 0 0 2.695-2.244l.344-1.876a9.3 9.3 0 0 1 2.642-.002l.343 1.877a2.737 2.737 0 0 0 3.617 2.085l1.81-.645c.552.69.993 1.449 1.319 2.266l-1.46 1.235a2.7 2.7 0 0 0-.96 1.864a2.71 2.71 0 0 0 .962 2.31l1.46 1.234a8.9 8.9 0 0 1-1.318 2.267z"/></svg>
